<svg xmlns="http://www.w3.org/2000/svg" xmlns:xlink="http://www.w3.org/1999/xlink" viewBox="0 0 61.37 61.37"><defs><style>.cls-1{fill:none;}.cls-2{clip-path:url(#clip-path);}.cls-3{fill:#fff;}.cls-4{fill:#42cb63;}.cls-5{fill:#fdec3c;}.cls-6{fill:#003290;}</style><clipPath id="clip-path" transform="translate(0)"><rect class="cls-1" width="61.37" height="61.37" rx="6.2"/></clipPath></defs><g id="Calque_2" data-name="Calque 2"><g id="Calque_1-2" data-name="Calque 1"><g class="cls-2"><rect class="cls-3" width="61.37" height="61.37" rx="6.2"/><path class="cls-4" d="M21.79,0A53.23,53.23,0,0,0,61.37,23.65V0Z" transform="translate(0)"/><polygon class="cls-5" points="36.79 15 0 15 0 61.37 11.59 61.37 11.59 46.37 45.35 46.37 45.35 19.63 45.35 15 36.79 15"/><path class="cls-4" d="M21.79,0A53.23,53.23,0,0,0,61.37,23.65V0Z" transform="translate(0)"/><polygon class="cls-5" points="36.79 15 0 15 0 61.37 11.59 61.37 11.59 46.37 45.35 46.37 45.35 19.63 45.35 15 36.79 15"/><path class="cls-6" d="M40.89,46c-15,0-16.82-11.13-16.82-11.13H34.19c16.54,0,20-10.06,20-15.07,0-9.28-8.66-14.54-18.91-13.82C16,7.28,13.47,26.05,13.46,26.08H0v8.74H13.54s2.55,20.69,27.35,20.69a28.91,28.91,0,0,0,20.48-8V26.8C60.54,39.84,50.64,46,40.89,46M37.54,15.06C41.91,15,44.6,18,44.6,20.12c0,4.2-5.54,6-11,6H23.91s1.41-10.74,13.63-11" transform="translate(0)"/><rect class="cls-1" width="61.37" height="61.37" rx="6.2"/></g></g></g></svg>